<!-- 
  Copyright (c) 2022 Google | Licensed under Apache License 2.0 | https://www.apache.org/licenses/LICENSE-2.0
  This is a subset of Material Design Icons
-->
<svg aria-hidden="true" style="position: absolute; width: 0; height: 0; overflow: hidden;" version="1.1" xmlns="http://www.w3.org/2000/svg" xmlns:xlink="http://www.w3.org/1999/xlink">
<defs>
<symbol id="open_in_new" viewBox="0 0 32 32" fill="currentColor">
<path d="M6.899 28.267q-1.333 0-2.25-0.917t-0.917-2.25v-18.202q0-1.333 0.917-2.25t2.25-0.917h7.667q0.634 0 1.101 0.467 0.466 0.467 0.466 1.099 0 0.667-0.466 1.134-0.467 0.466-1.101 0.466h-7.667v18.202h18.202v-7.667q0-0.634 0.466-1.101 0.467-0.466 1.134-0.466 0.632 0 1.099 0.466 0.467 0.467 0.467 1.101v7.667q0 1.333-0.917 2.25t-2.25 0.917zM12.133 19.867q-0.466-0.434-0.466-1.083 0-0.651 0.466-1.117l10.766-10.768h-2.366q-0.666 0-1.133-0.466-0.467-0.467-0.467-1.134 0-0.632 0.467-1.099t1.133-0.467h6.168q0.632 0 1.099 0.467t0.467 1.099v6.168q0 0.666-0.467 1.133t-1.099 0.467q-0.667 0-1.134-0.467-0.466-0.467-0.466-1.133v-2.366l-10.8 10.8q-0.434 0.466-1.067 0.466t-1.101-0.499z"></path>
</symbol>
<symbol id="sync" viewBox="0 0 32 32" fill="currentColor">
<path d="M20.4 25.901q-0.8 0.366-1.434-0.101t-0.634-1.434q0-0.434 0.301-0.866 0.299-0.434 0.733-0.634 1.966-0.934 3.133-2.818 1.168-1.883 1.168-4.117 0-1.434-0.534-2.766-0.533-1.333-1.666-2.499l-0.168-0.168v1.501q0 0.6-0.45 1.034t-1.016 0.434q-0.6 0-1.034-0.434t-0.434-1.034v-5.234q0-0.634 0.467-1.117 0.466-0.483 1.099-0.483h5.267q0.6 0 1.034 0.434t0.434 1.034-0.434 1.034q-0.434 0.432-1.034 0.432h-1.901l0.168 0.134q1.699 1.533 2.533 3.55 0.834 2.016 0.834 4.149 0 3.301-1.75 5.984t-4.683 3.984zM6.8 26.834q-0.6 0-1.034-0.434t-0.434-1.034 0.434-1.034q0.434-0.432 1.034-0.432h1.867l-0.168-0.134q-1.666-1.499-2.515-3.533-0.851-2.034-0.851-4.166 0-3.301 1.75-5.984t4.683-3.984q0.8-0.366 1.434 0.101t0.634 1.434q0 0.434-0.301 0.867-0.299 0.432-0.733 0.632-1.966 0.934-3.133 2.818t-1.166 4.117q0 1.434 0.549 2.782 0.55 1.35 1.683 2.517l0.134 0.134v-1.467q0-0.6 0.45-1.034t1.016-0.434q0.6 0 1.034 0.434t0.434 1.034v5.2q0 0.634-0.467 1.117-0.466 0.483-1.099 0.483z"></path>
</symbol>
<symbol id="light_mode" viewBox="0 0 32 32" fill="currentColor">
<path d="M16 19.634q1.501 0 2.566-1.067 1.067-1.066 1.067-2.566t-1.067-2.566q-1.066-1.067-2.566-1.067t-2.566 1.067q-1.067 1.066-1.067 2.566t1.067 2.566q1.066 1.067 2.566 1.067zM16 22.4q-2.667 0-4.533-1.867-1.867-1.866-1.867-4.533t1.867-4.533q1.866-1.867 4.533-1.867t4.533 1.867q1.867 1.866 1.867 4.533t-1.867 4.533q-1.866 1.867-4.533 1.867zM2.8 17.4q-0.566 0-0.984-0.4-0.416-0.4-0.416-1 0-0.566 0.416-0.984 0.418-0.416 0.984-0.416h3.2q0.566 0 0.984 0.4 0.416 0.4 0.416 1 0 0.566-0.416 0.984-0.418 0.416-0.984 0.416zM26 17.4q-0.566 0-0.984-0.4-0.416-0.4-0.416-1 0-0.566 0.416-0.984 0.418-0.416 0.984-0.416h3.2q0.566 0 0.984 0.4 0.416 0.4 0.416 1 0 0.566-0.416 0.984-0.418 0.416-0.984 0.416zM16 7.4q-0.566 0-0.984-0.416-0.416-0.418-0.416-0.984v-3.2q0-0.566 0.4-0.984 0.4-0.416 1-0.416 0.566 0 0.984 0.416 0.416 0.418 0.416 0.984v3.2q0 0.566-0.4 0.984-0.4 0.416-1 0.416zM16 30.6q-0.566 0-0.984-0.416-0.416-0.418-0.416-0.984v-3.2q0-0.566 0.4-0.984 0.4-0.416 1-0.416 0.566 0 0.984 0.416 0.416 0.418 0.416 0.984v3.2q0 0.566-0.4 0.984-0.4 0.416-1 0.416zM7.933 9.901l-1.666-1.701q-0.434-0.4-0.434-0.95 0-0.549 0.434-0.982 0.4-0.434 0.966-0.434t0.966 0.434l1.701 1.666q0.432 0.434 0.432 0.984t-0.432 0.984q-0.4 0.432-0.968 0.432-0.566 0-1-0.432zM23.8 25.733l-1.701-1.666q-0.432-0.4-0.432-0.966 0-0.568 0.432-1.002 0.4-0.432 0.968-0.432 0.566 0 1 0.432l1.666 1.701q0.434 0.4 0.434 0.95 0 0.549-0.434 0.982t-0.966 0.434-0.966-0.434zM22.099 9.901q-0.432-0.4-0.432-0.968 0-0.566 0.432-1l1.701-1.666q0.434-0.434 0.966-0.418 0.533 0.018 0.966 0.418 0.434 0.434 0.434 0.966t-0.434 0.966l-1.666 1.701q-0.434 0.432-0.984 0.432t-0.984-0.432zM6.267 25.733q-0.434-0.4-0.434-0.966t0.434-0.966l1.666-1.701q0.4-0.4 0.966-0.4 0.568 0 1.002 0.4 0.432 0.434 0.416 0.984t-0.416 0.984l-1.701 1.666q-0.4 0.434-0.95 0.434-0.549 0-0.982-0.434z"></path>
</symbol>
<symbol id="dark_mode" viewBox="0 0 32 32" fill="currentColor">
<path d="M16 28.133q-5.067 0-8.6-3.517-3.533-3.515-3.533-8.616 0-4.366 2.6-7.584 2.6-3.216 6.866-4.149 1.434-0.334 2.134 0.349 0.699 0.683 0.133 2.085-0.301 0.733-0.483 1.483-0.184 0.749-0.184 1.549 0 3.067 2.15 5.2 2.15 2.134 5.218 2.134 0.8 0 1.549-0.15 0.75-0.15 1.483-0.483 1.434-0.566 2.101 0.050 0.666 0.618 0.333 2.050-0.867 4.134-4.016 6.867-3.15 2.733-7.75 2.733zM16 24.966q2.667 0 4.784-1.35 2.115-1.349 3.182-3.616-0.499 0.133-1.016 0.184-0.517 0.050-1.083 0.016-4.101-0.133-7-3.016-2.901-2.883-3.067-7.051 0-0.566 0.034-1.083t0.166-1.016q-2.234 1.067-3.584 3.182-1.349 2.117-1.349 4.784 0 3.733 2.6 6.35 2.6 2.616 6.333 2.616z"></path>
</symbol>
<symbol id="event" viewBox="0 0 32 32" fill="currentColor">
<path d="M19.234 23.901q-1.434 0-2.434-0.984t-1-2.384q0-1.432 1-2.434 1-0.998 2.434-0.998 1.4 0 2.382 0.998 0.984 1.002 0.984 2.434 0 1.4-0.984 2.384-0.982 0.984-2.382 0.984zM6.899 29.6q-1.333 0-2.25-0.917t-0.917-2.25v-18.067q0-1.333 0.917-2.25t2.25-0.917h0.968v-1.299q0-0.602 0.45-1.051t1.050-0.45 1.050 0.45q0.451 0.45 0.451 1.051v1.299h10.266v-1.299q0-0.602 0.451-1.051 0.45-0.45 1.050-0.45t1.050 0.45 0.45 1.051v1.299h0.968q1.333 0 2.25 0.917t0.917 2.25v18.067q0 1.333-0.917 2.25t-2.25 0.917zM6.899 26.434h18.202v-13.034h-18.202v13.034zM6.899 10.6h18.202v-2.234h-18.202zM6.899 10.6v0z"></path>
</symbol>
<symbol id="schedule" viewBox="0 0 32 32" fill="currentColor">
<path d="M19.101 21.267q0.4 0.432 1.032 0.432 0.634 0 1.101-0.466 0.466-0.467 0.466-1.101 0-0.632-0.466-1.066l-3.701-3.701v-4.434q0-0.632-0.45-1.066t-1.083-0.434-1.083 0.45-0.45 1.050v5.034q0 0.301 0.117 0.566 0.117 0.267 0.349 0.501zM16 29.6q-2.834 0-5.317-1.067-2.483-1.066-4.317-2.899t-2.899-4.317q-1.067-2.483-1.067-5.317t1.067-5.317q1.066-2.483 2.899-4.317t4.317-2.899q2.483-1.067 5.317-1.067t5.317 1.067q2.483 1.066 4.317 2.899t2.899 4.317q1.067 2.483 1.067 5.317t-1.067 5.317q-1.066 2.483-2.899 4.317t-4.317 2.899q-2.483 1.067-5.317 1.067zM16 26.434q4.333 0 7.384-3.034 3.050-3.034 3.050-7.4 0-4.333-3.050-7.384-3.051-3.050-7.384-3.050t-7.384 3.034q-3.050 3.034-3.050 7.4 0 4.333 3.050 7.384 3.051 3.050 7.384 3.050z"></path>
</symbol>
<symbol id="info" viewBox="0 0 32 32" fill="currentColor">
<path d="M16 22.8q0.634 0 1.083-0.45t0.45-1.083v-5.134q0-0.6-0.45-1.032-0.45-0.434-1.083-0.434t-1.083 0.45-0.45 1.050v5.133q0 0.602 0.45 1.051t1.083 0.45zM16 12.133q0.634 0 1.101-0.466 0.466-0.467 0.466-1.101t-0.466-1.099q-0.467-0.467-1.101-0.467t-1.101 0.467q-0.466 0.466-0.466 1.099t0.466 1.101q0.467 0.466 1.101 0.466zM16 29.6q-2.834 0-5.317-1.067-2.483-1.066-4.317-2.899t-2.899-4.317q-1.067-2.483-1.067-5.317t1.067-5.317q1.066-2.483 2.899-4.317t4.317-2.899q2.483-1.067 5.317-1.067t5.317 1.067q2.483 1.066 4.317 2.899t2.899 4.317q1.067 2.483 1.067 5.317t-1.067 5.317q-1.066 2.483-2.899 4.317t-4.317 2.899q-2.483 1.067-5.317 1.067zM16 26.434q4.333 0 7.384-3.034 3.050-3.034 3.050-7.4 0-4.333-3.050-7.384-3.051-3.050-7.384-3.050t-7.384 3.034q-3.050 3.034-3.050 7.4 0 4.333 3.050 7.384 3.051 3.050 7.384 3.050z"></path>
</symbol>
<symbol id="report" viewBox="0 0 32 32" fill="currentColor">
<path d="M12.2 28.267q-0.634 0-1.216-0.251-0.584-0.25-1.051-0.683l-5.266-5.266q-0.434-0.467-0.683-1.051-0.251-0.582-0.251-1.216v-7.6q0-0.634 0.251-1.216 0.25-0.584 0.683-1.051l5.266-5.266q0.467-0.434 1.051-0.683 0.582-0.251 1.216-0.251h7.6q0.634 0 1.216 0.251 0.584 0.25 1.051 0.683l5.266 5.266q0.434 0.467 0.683 1.051 0.251 0.582 0.251 1.216v7.6q0 0.634-0.251 1.216-0.25 0.584-0.683 1.051l-5.266 5.266q-0.467 0.434-1.051 0.683-0.582 0.251-1.216 0.251zM16 22.899q0.6 0 1.067-0.466 0.466-0.467 0.466-1.067 0-0.634-0.466-1.083-0.467-0.45-1.067-0.45t-1.067 0.45q-0.466 0.45-0.466 1.083 0 0.6 0.466 1.067 0.467 0.466 1.067 0.466zM16 17.501q0.6 0 1.034-0.434t0.434-1.034v-5.366q0-0.568-0.434-1-0.434-0.434-1.034-0.434t-1.034 0.434q-0.434 0.432-0.434 1v5.366q0 0.6 0.434 1.034t1.034 0.434zM12.2 25.101h7.6l5.301-5.301v-7.6l-5.301-5.301h-7.6l-5.301 5.301v7.6z"></path>
</symbol>
<symbol id="warning" viewBox="0 0 32 32" fill="currentColor">
<path d="M3.867 28.133q-0.934 0-1.4-0.782-0.467-0.784 0-1.584l12.166-21q0.467-0.8 1.366-0.8t1.366 0.8l12.166 21q0.467 0.8 0 1.584-0.466 0.782-1.4 0.782zM16.034 13.467q-0.566 0-0.984 0.416-0.416 0.418-0.416 0.984v3.632q0 0.568 0.416 0.984 0.418 0.418 0.984 0.418t0.982-0.418q0.418-0.416 0.418-0.984v-3.632q0-0.566-0.418-0.984-0.416-0.416-0.982-0.416zM16.034 23.966q0.566 0 1-0.434 0.434-0.432 0.434-1 0-0.566-0.434-1-0.434-0.432-1-0.432t-1 0.432q-0.434 0.434-0.434 1 0 0.568 0.434 1 0.434 0.434 1 0.434zM6.366 25.101h19.267l-9.634-16.602z"></path>
</symbol>
</defs>
<view id="ico_dark_mode" viewBox="0 0 32 32" />
<view id="ico_light_mode" viewBox="0 32 32 32" />
<view id="ico_open_in_new" viewBox="0 64 32 32" />
<view id="ico_sync" viewBox="0 96 32 32" />
<view id="ico_event" viewBox="0 128 32 32" />
<view id="ico_schedule" viewBox="0 160 32 32"/>
<view id="ico_info" viewBox="0 192 32 32"/>
<view id="ico_report" viewBox="0 224 32 32"/>
<view id="ico_warning" viewBox="0 256 32 32"/>
<use xlink:href="#dark_mode" x="0" y="0" width="32" height="32" />
<use xlink:href="#light_mode" x="0" y="32" width="32" height="32" />
<use xlink:href="#open_in_new" x="0" y="64" width="32" height="32" />
<use xlink:href="#sync" x="0" y="96" width="32" height="32" />
<use xlink:href="#event" x="0" y="128" width="32" height="32" />
<use xlink:href="#schedule" x="0" y="160" width="32" height="32" />
<use xlink:href="#info" x="0" y="192" width="32" height="32" />
<use xlink:href="#report" x="0" y="224" width="32" height="32" />
<use xlink:href="#warning" x="0" y="256" width="32" height="32" />
</svg>